<?xml version="1.0" encoding="utf-8"?>
<!-- Generator: Adobe Illustrator 24.3.0, SVG Export Plug-In . SVG Version: 6.00 Build 0)  -->
<svg version="1.1" id="Layer_1" xmlns="http://www.w3.org/2000/svg" xmlns:xlink="http://www.w3.org/1999/xlink" x="0px" y="0px"
	 viewBox="0 0 512 512" style="enable-background:new 0 0 512 512;" xml:space="preserve">
<style type="text/css">
	.st0{fill:#FFFFFF;}
	.st1{fill:#135DF4;}
	.st2{fill:#00F3FF;}
</style>
<path class="st1" d="M425.23,512H86.77C38.85,512,0,473.15,0,425.23V86.77C0,38.85,38.85,0,86.77,0h338.47
	C473.15,0,512,38.85,512,86.77v338.47C512,473.15,473.15,512,425.23,512z"/>
<g>
	<g>
		<path class="st2" d="M314.95,362.29c0,2.84-0.21,5.63-0.6,8.36h-116.7c-0.39-2.73-0.6-5.52-0.6-8.36
			c0-19.76,9.74-37.24,24.67-47.94l22.23,22.23l-1.7,23.46h26.39l-1.86-22.19l23.5-23.5C305.21,325.04,314.95,342.52,314.95,362.29z
			"/>
		<path class="st2" d="M197.06,289.69l0.59,0.6c-10.69,14.93-28.18,24.66-47.94,24.66c-2.83,0-5.63-0.21-8.36-0.6v-116.7
			c2.73-0.39,5.53-0.6,8.36-0.6c19.77,0,37.24,9.73,47.94,24.67l-0.59,0.59C178.45,240.91,178.45,271.09,197.06,289.69z"/>
		<path class="st2" d="M314.95,149.71c0,19.76-9.74,37.24-24.67,47.94L256,163.37l-34.29,34.29c-14.93-10.7-24.67-28.18-24.67-47.94
			c0-2.84,0.21-5.63,0.6-8.36h116.7C314.74,144.08,314.95,146.87,314.95,149.71z"/>
		<path class="st2" d="M370.66,197.65v116.7c-2.73,0.39-5.53,0.6-8.36,0.6c-19.77,0-37.24-9.73-47.94-24.66l0.59-0.6
			c18.61-18.6,18.61-48.77,0-67.37l-0.59-0.59c10.7-14.94,28.18-24.67,47.94-24.67C365.13,197.05,367.92,197.26,370.66,197.65z"/>
		<polygon class="st2" points="268.65,360.04 242.26,360.04 243.95,336.58 249.52,259.54 259.54,272.56 259.54,254.11 
			250.49,246.28 254.47,191.23 262.44,286.11 247.92,298.67 247.92,323.42 263.83,302.74 266.78,337.84 		"/>
		<polygon class="st2" points="304.85,249.43 263.83,302.74 247.92,323.42 247.92,298.67 262.44,286.11 		"/>
		<polygon class="st2" points="259.54,254.11 259.54,272.56 249.52,259.54 217.11,217.41 250.49,246.28 		"/>
	</g>
</g>
</svg>
